PathFileType	4	(X/Y/Z)	./resultDataOpenSim/trcMotMarkerGrf/sub06/qtm-04-07.trc
DataRate	CameraRate	NumFrames	NumMarkers	Units	OrigDataRate	OrigDataStartFrame	OrigNumFrames
250.000000	250.000000	8	24	m	250.000000	139	554
Frame#	Time	L.Toe.Tip			R.Toe.Tip			L.Ankle.Lat			R.Ankle.Lat			L.Ankle.Med			R.Ankle.Med			L.Heel			R.Heel			L.Knee.Lat			R.Knee.Lat			L.Knee.Med			R.Knee.Med			L.Thigh.Upper			R.Thigh.Upper			L.ASIS			R.ASIS			V.Sacral			L.Acromium			R.Acromium			C7			L.Elbow			R.Elbow			L.Wrist.Lat			R.Wrist.Lat
		X1	Y1	Z1	X2	Y2	Z2	X3	Y3	Z3	X4	Y4	Z4	X5	Y5	Z5	X6	Y6	Z6	X7	Y7	Z7	X8	Y8	Z8	X9	Y9	Z9	X10	Y10	Z10	X11	Y11	Z11	X12	Y12	Z12	X13	Y13	Z13	X14	Y14	Z14	X15	Y15	Z15	X16	Y16	Z16	X17	Y17	Z17	X18	Y18	Z18	X19	Y19	Z19	X20	Y20	Z20	X21	Y21	Z21	X22	Y22	Z22	X23	Y23	Z23	X24	Y24	Z24

139	0.552	-0.18882431	0.10241753	-0.060457467	-0.8174293	0.035121275	0.074087409	-0.31545626	0.090226783	-0.084973182	-0.95170273	0.063518805	0.090111418	-0.32153551	0.10617359	-0.0012586067	-0.92361672	0.08240071	0.0044610613	-0.37090983	0.033762218	-0.039415324	-1.0047531	0.045078337	0.024344233	-0.41859184	0.44632415	-0.089917823	-0.76423264	0.41097441	0.13246168	-0.43683782	0.43353585	0.032770426	-0.78776232	0.41365209	0.0014147457	-0.61440142	0.78612746	-0.14223937	-0.6805485	0.7640632	0.20201456	-0.55539861	0.8296926	-0.087966808	-0.57212311	0.81645541	0.16277116	-0.75173269	0.89458912	0.033404503	-0.66227924	1.3061856	-0.14653831	-0.62906978	1.2960398	0.21385226	-0.72306963	1.3363999	0.040350375	-0.75719778	1.0082234	-0.18863959	-0.64820496	0.9824623	0.31482247	-0.66907481	0.78823337	-0.25378267	-0.41974885	0.88504521	0.27561574
140	0.556	-0.17750993	0.10401968	-0.059067701	-0.81733113	0.035111098	0.074122124	-0.30391957	0.089862388	-0.083951731	-0.95129613	0.063767308	0.089993131	-0.31034773	0.10568662	-0.00011903521	-0.92307066	0.082462172	0.0042919226	-0.35870907	0.032496829	-0.03863857	-1.0044709	0.045699738	0.024070733	-0.41200531	0.4440136	-0.089165469	-0.75997812	0.40921805	0.1323154	-0.43045016	0.43135452	0.03371347	-0.78329364	0.41221781	0.0013125338	-0.60790281	0.78326486	-0.14227218	-0.67525613	0.76223262	0.20249249	-0.54861956	0.82711357	-0.088012852	-0.56626721	0.81419671	0.16279993	-0.74511219	0.89226098	0.033268434	-0.65654357	1.3037372	-0.14677483	-0.62344704	1.2937208	0.21380356	-0.71745353	1.3340527	0.040216193	-0.75144459	1.0059535	-0.18855384	-0.64120394	0.98011061	0.31502884	-0.6646491	0.78560642	-0.25410738	-0.4124002	0.88393884	0.27485551
141	0.56	-0.16651861	0.10534657	-0.057793395	-0.8172274	0.035103259	0.074160293	-0.29269739	0.089378	-0.082889407	-0.95086093	0.064047517	0.089863997	-0.29937512	0.10514807	0.0010641163	-0.92248013	0.082555308	0.0041084047	-0.34681025	0.031222213	-0.037719195	-1.0041221	0.046362138	0.023684495	-0.40535172	0.44170704	-0.088420121	-0.7556558	0.40742422	0.13218412	-0.42403174	0.42913764	0.034634803	-0.77874914	0.41073278	0.0011889778	-0.60118148	0.78041902	-0.1422512	-0.66999119	0.76048629	0.20289536	-0.54186243	0.82451319	-0.087992432	-0.56045903	0.81191255	0.16282094	-0.7385137	0.88984164	0.033074725	-0.65077233	1.3012705	-0.14701711	-0.61780901	1.2913708	0.21373957	-0.71181448	1.3316558	0.040065919	-0.74566268	1.0036424	-0.18847966	-0.63416181	0.97774196	0.31520877	-0.66009939	0.7829522	-0.25439468	-0.40505933	0.88273749	0.27410144
142	0.564	-0.15586006	0.10638916	-0.056577557	-0.81712594	0.035087812	0.074191976	-0.28178485	0.088765607	-0.081792101	-0.95036933	0.064375378	0.089702068	-0.28864706	0.10454824	0.0022626231	-0.92184696	0.082691303	0.003919323	-0.33513536	0.029900618	-0.036611318	-1.0037446	0.047065968	0.02324919	-0.39862311	0.43940731	-0.087680868	-0.75128814	0.40561424	0.13206723	-0.41757917	0.42688808	0.035525643	-0.77415512	0.40920812	0.0010352621	-0.59430447	0.77760975	-0.14218136	-0.66478255	0.7587898	0.2032758	-0.53511058	0.82190462	-0.087913311	-0.55464302	0.80961077	0.16286654	-0.73194774	0.88731769	0.032810924	-0.64496844	1.2987887	-0.14726383	-0.61215663	1.2889954	0.21365306	-0.70615349	1.3292106	0.039895632	-0.73984616	1.0012926	-0.18841252	-0.62709115	0.97536738	0.31536407	-0.65557585	0.78027394	-0.25467937	-0.39777566	0.88144513	0.27341125
143	0.568	-0.14554606	0.10714231	-0.055359039	-0.81703015	0.03506341	0.07421665	-0.27119868	0.088016085	-0.080667932	-0.94980394	0.064747567	0.089492288	-0.27821345	0.10386165	0.0034558748	-0.92117579	0.082875545	0.0037362364	-0.32372537	0.028492146	-0.035286532	-1.0034152	0.047825036	0.022919126	-0.39183312	0.43710711	-0.086951981	-0.74691284	0.40379952	0.13194881	-0.41108982	0.42460817	0.036381219	-0.76953139	0.40765172	0.00085056988	-0.58741735	0.77484697	-0.14209108	-0.65963941	0.75710974	0.20369228	-0.52834613	0.81929031	-0.08778168	-0.54874968	0.80730504	0.16296962	-0.72542439	0.88468431	0.032464898	-0.63914185	1.2962956	-0.14751633	-0.60650036	1.2866024	0.21354437	-0.70047316	1.3267245	0.039701168	-0.73398627	0.99891236	-0.1883593	-0.62000595	0.97299796	0.31549424	-0.65111781	0.7775906	-0.2549687	-0.39055012	0.88005947	0.27279374
144	0.572	-0.13556963	0.10759201	-0.054134478	-0.81693962	0.035036204	0.074239596	-0.26095707	0.087117476	-0.07952082	-0.94917587	0.065160328	0.089252629	-0.26816906	0.10302932	0.0046040603	-0.9204759	0.083107741	0.0035595259	-0.31274289	0.026996771	-0.033825137	-1.0031741	0.048652967	0.022784004	-0.38500882	0.43479512	-0.086245493	-0.74257949	0.40197801	0.13181848	-0.40455517	0.42230175	0.037199941	-0.76487683	0.40606267	0.00064845172	-0.5805965	0.77213383	-0.14200052	-0.65451052	0.75538433	0.20412994	-0.52155206	0.81666351	-0.087602908	-0.54275219	0.80500095	0.16313333	-0.71894613	0.88196897	0.032028643	-0.63331376	1.2937984	-0.14778023	-0.60084992	1.2842	0.21342053	-0.69477256	1.3242055	0.039483283	-0.72808002	0.99650983	-0.18832925	-0.61290283	0.97063336	0.31559249	-0.64660196	0.77492977	-0.25524671	-0.38335536	0.87857741	0.27222921
145	0.576	-0.12592538	0.10772776	-0.052950545	-0.81685229	0.035013672	0.07426535	-0.25107219	0.086055183	-0.078352355	-0.94855141	0.065626992	0.089029247	-0.25856417	0.10200697	0.0056833429	-0.91976007	0.083385117	0.0033800151	-0.30230588	0.025452108	-0.032408561	-1.0029634	0.049562295	0.022731803	-0.37819066	0.43245812	-0.085579664	-0.73834793	0.40013357	0.1316734	-0.39795738	0.41997614	0.037982417	-0.76017088	0.40443421	0.00045622577	-0.57379372	0.76947175	-0.14190976	-0.64918117	0.7533969	0.20429371	-0.51471626	0.81402169	-0.087385532	-0.5366769	0.80268985	0.16333684	-0.71249711	0.87925107	0.031503862	-0.62749964	1.2913129	-0.14806425	-0.5952004	1.2817895	0.21328086	-0.68904696	1.3216584	0.03924625	-0.72212876	0.9940945	-0.18832897	-0.60574829	0.96825623	0.31564359	-0.64190025	0.77229959	-0.25549937	-0.37616966	0.87700242	0.27170306
146	0.58	-0.11662256	0.10755081	-0.051851172	-0.81676597	0.035005577	0.074297059	-0.24154898	0.084817814	-0.077169479	-0.94800753	0.066174993	0.088862699	-0.24933792	0.10080601	0.0067225889	-0.91903806	0.083706661	0.0031946691	-0.29238647	0.023871359	-0.03113348	-1.0026943	0.050566606	0.022585297	-0.37141527	0.43008643	-0.084969514	-0.73428555	0.39824368	0.13150724	-0.39127512	0.41764079	0.038728775	-0.7553967	0.40276356	0.00029690516	-0.56692265	0.76685748	-0.14181739	-0.64323035	0.75073393	0.20352069	-0.507833	0.81137153	-0.087140678	-0.53056336	0.80036281	0.16355919	-0.70603959	0.87663382	0.030904189	-0.62165896	1.2888533	-0.14837212	-0.58953421	1.2793662	0.2131173	-0.68329245	1.319087	0.038987728	-0.716136	0.99167309	-0.18835944	-0.59849409	0.96584539	0.31562392	-0.63702469	0.76967091	-0.25573171	-0.36896937	0.87533797	0.271201
